<?xml version="1.0" encoding="UTF-8" standalone="no"?>
<svg
   xmlns:dc="http://purl.org/dc/elements/1.1/"
   xmlns:cc="http://creativecommons.org/ns#"
   xmlns:rdf="http://www.w3.org/1999/02/22-rdf-syntax-ns#"
   xmlns:svg="http://www.w3.org/2000/svg"
   xmlns="http://www.w3.org/2000/svg"
   xmlns:sodipodi="http://sodipodi.sourceforge.net/DTD/sodipodi-0.dtd"
   xmlns:inkscape="http://www.inkscape.org/namespaces/inkscape"
   viewBox="0 0 24 24"
   width="24"
   height="24"
   version="1.1"
   id="svg4"
   sodipodi:docname="sun.svg"
   inkscape:version="1.0.1 (3bc2e813f5, 2020-09-07)">
  <metadata
     id="metadata10">
    <rdf:RDF>
      <cc:Work
         rdf:about="">
        <dc:format>image/svg+xml</dc:format>
        <dc:type
           rdf:resource="http://purl.org/dc/dcmitype/StillImage" />
        <dc:title></dc:title>
      </cc:Work>
    </rdf:RDF>
  </metadata>
  <defs
     id="defs8" />
  <sodipodi:namedview
     pagecolor="#ffffff"
     bordercolor="#666666"
     borderopacity="1"
     objecttolerance="10"
     gridtolerance="10"
     guidetolerance="10"
     inkscape:pageopacity="0"
     inkscape:pageshadow="2"
     inkscape:window-width="923"
     inkscape:window-height="480"
     id="namedview6"
     showgrid="false"
     inkscape:pagecheckerboard="true"
     inkscape:zoom="10.41918"
     inkscape:cx="12"
     inkscape:cy="12"
     inkscape:window-x="0"
     inkscape:window-y="0"
     inkscape:window-maximized="0"
     inkscape:current-layer="svg4" />
  <path
     fill-rule="evenodd"
     d="M12 17.5a5.5 5.5 0 100-11 5.5 5.5 0 000 11zm0 1.5a7 7 0 100-14 7 7 0 000 14zm12-7a.75.75 0 01-.75.75h-2.5a.75.75 0 010-1.5h2.5A.75.75 0 0124 12zM4 12a.75.75 0 01-.75.75H.75a.75.75 0 010-1.5h2.5A.75.75 0 014 12zm16.485-8.485a.75.75 0 010 1.06l-1.768 1.768a.75.75 0 01-1.06-1.06l1.767-1.768a.75.75 0 011.061 0zM6.343 17.657a.75.75 0 010 1.06l-1.768 1.768a.75.75 0 11-1.06-1.06l1.767-1.768a.75.75 0 011.061 0zM12 0a.75.75 0 01.75.75v2.5a.75.75 0 01-1.5 0V.75A.75.75 0 0112 0zm0 20a.75.75 0 01.75.75v2.5a.75.75 0 01-1.5 0v-2.5A.75.75 0 0112 20zM3.515 3.515a.75.75 0 011.06 0l1.768 1.768a.75.75 0 11-1.06 1.06L3.515 4.575a.75.75 0 010-1.06zm14.142 14.142a.75.75 0 011.06 0l1.768 1.768a.75.75 0 01-1.06 1.06l-1.768-1.767a.75.75 0 010-1.061z"
     id="path2"
     style="fill:#ffffff" />
</svg>
